<svg width="95" height="66" viewBox="0 0 95 66" fill="none" xmlns="http://www.w3.org/2000/svg">
<path d="M14.6 4.71429C14.6 2.1067 16.7003 0 19.3 0H24C26.5997 0 28.7 2.1067 28.7 4.71429V28.2857V37.7143V61.2857C28.7 63.8933 26.5997 66 24 66H19.3C16.7003 66 14.6 63.8933 14.6 61.2857V51.8571H9.9C7.30031 51.8571 5.2 49.7504 5.2 47.1429V37.7143C2.60031 37.7143 0.5 35.6076 0.5 33C0.5 30.3924 2.60031 28.2857 5.2 28.2857V18.8571C5.2 16.2496 7.30031 14.1429 9.9 14.1429H14.6V4.71429ZM80.4 4.71429V14.1429H85.1C87.6997 14.1429 89.8 16.2496 89.8 18.8571V28.2857C92.3997 28.2857 94.5 30.3924 94.5 33C94.5 35.6076 92.3997 37.7143 89.8 37.7143V47.1429C89.8 49.7504 87.6997 51.8571 85.1 51.8571H80.4V61.2857C80.4 63.8933 78.2997 66 75.7 66H71C68.4003 66 66.3 63.8933 66.3 61.2857V37.7143V28.2857V4.71429C66.3 2.1067 68.4003 0 71 0H75.7C78.2997 0 80.4 2.1067 80.4 4.71429ZM61.6 28.2857V37.7143H33.4V28.2857H61.6Z" fill="#FE5722"/>
</svg>
